<mxfile host="app.diagrams.net" modified="2020-08-26T04:12:52.607Z" agent="5.0 (Windows NT 10.0; Win64; x64) AppleWebKit/537.36 (KHTML, like Gecko) Chrome/84.0.4147.135 Safari/537.36" etag="yDwPR-0SDqWeA0OMZmq1" version="13.6.5" type="github">
  <diagram id="wg8IfTeeThcb8yMlrm0l" name="Page-1">
    <mxGraphModel dx="1422" dy="882" grid="1" gridSize="10" guides="1" tooltips="1" connect="1" arrows="1" fold="1" page="1" pageScale="1" pageWidth="1169" pageHeight="827" math="0" shadow="0">
      <root>
        <mxCell id="0" />
        <mxCell id="1" parent="0" />
        <mxCell id="7xc8tvYt5sH4905yNlHF-28" value="" style="group" vertex="1" connectable="0" parent="1">
          <mxGeometry x="10" y="10" width="1130" height="800" as="geometry" />
        </mxCell>
        <mxCell id="7xc8tvYt5sH4905yNlHF-1" value="バリ認識アルゴリズム開発" style="ellipse;whiteSpace=wrap;html=1;" vertex="1" parent="7xc8tvYt5sH4905yNlHF-28">
          <mxGeometry x="478.97119341563786" width="241.81069958847738" height="81.63265306122449" as="geometry" />
        </mxCell>
        <mxCell id="7xc8tvYt5sH4905yNlHF-4" style="rounded=0;orthogonalLoop=1;jettySize=auto;html=1;exitX=0.5;exitY=0;exitDx=0;exitDy=0;entryX=0;entryY=1;entryDx=0;entryDy=0;" edge="1" parent="7xc8tvYt5sH4905yNlHF-28" source="7xc8tvYt5sH4905yNlHF-2" target="7xc8tvYt5sH4905yNlHF-1">
          <mxGeometry relative="1" as="geometry" />
        </mxCell>
        <mxCell id="7xc8tvYt5sH4905yNlHF-2" value="李" style="rounded=1;whiteSpace=wrap;html=1;" vertex="1" parent="7xc8tvYt5sH4905yNlHF-28">
          <mxGeometry x="203.67901234567904" y="114.28571428571429" width="111.60493827160494" height="48.97959183673469" as="geometry" />
        </mxCell>
        <mxCell id="7xc8tvYt5sH4905yNlHF-5" style="edgeStyle=none;rounded=0;orthogonalLoop=1;jettySize=auto;html=1;exitX=0.5;exitY=0;exitDx=0;exitDy=0;entryX=1;entryY=1;entryDx=0;entryDy=0;" edge="1" parent="7xc8tvYt5sH4905yNlHF-28" source="7xc8tvYt5sH4905yNlHF-3" target="7xc8tvYt5sH4905yNlHF-1">
          <mxGeometry relative="1" as="geometry" />
        </mxCell>
        <mxCell id="7xc8tvYt5sH4905yNlHF-3" value="田中先生" style="rounded=1;whiteSpace=wrap;html=1;" vertex="1" parent="7xc8tvYt5sH4905yNlHF-28">
          <mxGeometry x="878.8888888888889" y="114.28571428571429" width="111.60493827160494" height="48.97959183673469" as="geometry" />
        </mxCell>
        <mxCell id="7xc8tvYt5sH4905yNlHF-6" value="MaskRCNN" style="rounded=1;whiteSpace=wrap;html=1;" vertex="1" parent="7xc8tvYt5sH4905yNlHF-28">
          <mxGeometry x="69.75308641975309" y="204.08163265306123" width="111.60493827160494" height="48.97959183673469" as="geometry" />
        </mxCell>
        <mxCell id="7xc8tvYt5sH4905yNlHF-22" style="edgeStyle=none;rounded=0;jumpStyle=none;orthogonalLoop=1;jettySize=auto;html=1;exitX=0.5;exitY=1;exitDx=0;exitDy=0;entryX=0.5;entryY=0;entryDx=0;entryDy=0;" edge="1" parent="7xc8tvYt5sH4905yNlHF-28" source="7xc8tvYt5sH4905yNlHF-2" target="7xc8tvYt5sH4905yNlHF-6">
          <mxGeometry relative="1" as="geometry" />
        </mxCell>
        <mxCell id="7xc8tvYt5sH4905yNlHF-7" value="Mobilenet+MaskRCNN" style="rounded=1;whiteSpace=wrap;html=1;" vertex="1" parent="7xc8tvYt5sH4905yNlHF-28">
          <mxGeometry x="330.164609053498" y="204.08163265306123" width="139.50617283950618" height="48.97959183673469" as="geometry" />
        </mxCell>
        <mxCell id="7xc8tvYt5sH4905yNlHF-23" style="edgeStyle=none;rounded=0;jumpStyle=none;orthogonalLoop=1;jettySize=auto;html=1;exitX=0.5;exitY=1;exitDx=0;exitDy=0;entryX=0.5;entryY=0;entryDx=0;entryDy=0;" edge="1" parent="7xc8tvYt5sH4905yNlHF-28" source="7xc8tvYt5sH4905yNlHF-2" target="7xc8tvYt5sH4905yNlHF-7">
          <mxGeometry relative="1" as="geometry" />
        </mxCell>
        <mxCell id="7xc8tvYt5sH4905yNlHF-20" value="速くするための改善" style="edgeStyle=none;rounded=0;orthogonalLoop=1;jettySize=auto;html=1;exitX=1;exitY=0.5;exitDx=0;exitDy=0;entryX=0;entryY=0.5;entryDx=0;entryDy=0;jumpStyle=none;verticalAlign=top;" edge="1" parent="7xc8tvYt5sH4905yNlHF-28" source="7xc8tvYt5sH4905yNlHF-6" target="7xc8tvYt5sH4905yNlHF-7">
          <mxGeometry relative="1" as="geometry" />
        </mxCell>
        <mxCell id="7xc8tvYt5sH4905yNlHF-8" value="YOLOネットワーク" style="rounded=1;whiteSpace=wrap;html=1;" vertex="1" parent="7xc8tvYt5sH4905yNlHF-28">
          <mxGeometry x="726.3621399176956" y="204.08163265306123" width="111.60493827160494" height="48.97959183673469" as="geometry" />
        </mxCell>
        <mxCell id="7xc8tvYt5sH4905yNlHF-10" style="edgeStyle=none;rounded=0;orthogonalLoop=1;jettySize=auto;html=1;exitX=0.5;exitY=1;exitDx=0;exitDy=0;entryX=0.5;entryY=0;entryDx=0;entryDy=0;" edge="1" parent="7xc8tvYt5sH4905yNlHF-28" source="7xc8tvYt5sH4905yNlHF-3" target="7xc8tvYt5sH4905yNlHF-8">
          <mxGeometry relative="1" as="geometry" />
        </mxCell>
        <mxCell id="7xc8tvYt5sH4905yNlHF-9" value="失敗" style="ellipse;shape=cloud;whiteSpace=wrap;html=1;fillColor=#f8cecc;strokeColor=#b85450;" vertex="1" parent="7xc8tvYt5sH4905yNlHF-28">
          <mxGeometry x="726.3621399176956" y="277.5510204081633" width="111.60493827160494" height="65.3061224489796" as="geometry" />
        </mxCell>
        <mxCell id="7xc8tvYt5sH4905yNlHF-11" style="edgeStyle=none;rounded=0;orthogonalLoop=1;jettySize=auto;html=1;exitX=0.5;exitY=1;exitDx=0;exitDy=0;entryX=0.5;entryY=0.1;entryDx=0;entryDy=0;entryPerimeter=0;" edge="1" parent="7xc8tvYt5sH4905yNlHF-28" source="7xc8tvYt5sH4905yNlHF-8" target="7xc8tvYt5sH4905yNlHF-9">
          <mxGeometry relative="1" as="geometry" />
        </mxCell>
        <mxCell id="7xc8tvYt5sH4905yNlHF-12" value="1つ種類NG判断アルゴリズム" style="rounded=1;whiteSpace=wrap;html=1;" vertex="1" parent="7xc8tvYt5sH4905yNlHF-28">
          <mxGeometry x="1018.395061728395" y="204.08163265306123" width="111.60493827160494" height="48.97959183673469" as="geometry" />
        </mxCell>
        <mxCell id="7xc8tvYt5sH4905yNlHF-13" style="edgeStyle=none;rounded=0;orthogonalLoop=1;jettySize=auto;html=1;exitX=0.5;exitY=1;exitDx=0;exitDy=0;entryX=0.5;entryY=0;entryDx=0;entryDy=0;" edge="1" parent="7xc8tvYt5sH4905yNlHF-28" source="7xc8tvYt5sH4905yNlHF-3" target="7xc8tvYt5sH4905yNlHF-12">
          <mxGeometry relative="1" as="geometry" />
        </mxCell>
        <mxCell id="7xc8tvYt5sH4905yNlHF-14" value="研究計画ない" style="ellipse;shape=cloud;whiteSpace=wrap;html=1;fillColor=#f8cecc;strokeColor=#b85450;" vertex="1" parent="7xc8tvYt5sH4905yNlHF-28">
          <mxGeometry x="1018.395061728395" y="277.5510204081633" width="111.60493827160494" height="65.3061224489796" as="geometry" />
        </mxCell>
        <mxCell id="7xc8tvYt5sH4905yNlHF-15" style="edgeStyle=none;rounded=0;orthogonalLoop=1;jettySize=auto;html=1;exitX=0.5;exitY=1;exitDx=0;exitDy=0;entryX=0.508;entryY=0.138;entryDx=0;entryDy=0;entryPerimeter=0;" edge="1" parent="7xc8tvYt5sH4905yNlHF-28" source="7xc8tvYt5sH4905yNlHF-12" target="7xc8tvYt5sH4905yNlHF-14">
          <mxGeometry relative="1" as="geometry" />
        </mxCell>
        <mxCell id="7xc8tvYt5sH4905yNlHF-17" value="&lt;ol&gt;&lt;li&gt;&lt;span&gt;バリの位置、輪郭、形状すべて出される。&lt;/span&gt;&lt;br&gt;&lt;/li&gt;&lt;li style=&quot;text-align: left&quot;&gt;判断結果の信頼性数値化できる。&lt;/li&gt;&lt;li style=&quot;text-align: left&quot;&gt;正答率高い、精度高い。&lt;/li&gt;&lt;li style=&quot;text-align: left&quot;&gt;複数のバリ検出できる。&lt;/li&gt;&lt;li style=&quot;text-align: left&quot;&gt;違う部品が同じアルゴリズム使える。&lt;/li&gt;&lt;li style=&quot;text-align: left&quot;&gt;数百枚部品を使って、より良い結果取れます。&lt;/li&gt;&lt;/ol&gt;" style="rounded=0;whiteSpace=wrap;html=1;fillColor=#d5e8d4;strokeColor=#82b366;" vertex="1" parent="7xc8tvYt5sH4905yNlHF-28">
          <mxGeometry y="297.9591836734694" width="251.11111111111111" height="122.44897959183673" as="geometry" />
        </mxCell>
        <mxCell id="7xc8tvYt5sH4905yNlHF-24" style="edgeStyle=none;rounded=0;jumpStyle=none;orthogonalLoop=1;jettySize=auto;html=1;exitX=0.5;exitY=1;exitDx=0;exitDy=0;entryX=0.5;entryY=0;entryDx=0;entryDy=0;" edge="1" parent="7xc8tvYt5sH4905yNlHF-28" source="7xc8tvYt5sH4905yNlHF-6" target="7xc8tvYt5sH4905yNlHF-17">
          <mxGeometry relative="1" as="geometry" />
        </mxCell>
        <mxCell id="7xc8tvYt5sH4905yNlHF-18" value="&lt;ol&gt;&lt;li&gt;トレーニングが時間がかかる。1サイクル数時間要ります。&lt;/li&gt;&lt;li&gt;バリを見逃せないけど、過判断の状況ある。&lt;/li&gt;&lt;li&gt;プログラミング難しいから、作業員が調整できない。&lt;/li&gt;&lt;/ol&gt;" style="rounded=0;whiteSpace=wrap;html=1;align=left;fillColor=#ffe6cc;strokeColor=#d79b00;" vertex="1" parent="7xc8tvYt5sH4905yNlHF-28">
          <mxGeometry y="473.469387755102" width="251.11111111111111" height="122.44897959183673" as="geometry" />
        </mxCell>
        <mxCell id="7xc8tvYt5sH4905yNlHF-19" value="&lt;ol&gt;&lt;li&gt;原型より速い。&lt;/li&gt;&lt;li&gt;正答率同等、精度同等。&lt;/li&gt;&lt;/ol&gt;" style="rounded=0;whiteSpace=wrap;html=1;fillColor=#d5e8d4;strokeColor=#82b366;align=left;" vertex="1" parent="7xc8tvYt5sH4905yNlHF-28">
          <mxGeometry x="274.3621399176955" y="297.9591836734694" width="251.11111111111111" height="122.44897959183673" as="geometry" />
        </mxCell>
        <mxCell id="7xc8tvYt5sH4905yNlHF-25" style="edgeStyle=none;rounded=0;jumpStyle=none;orthogonalLoop=1;jettySize=auto;html=1;exitX=0.5;exitY=1;exitDx=0;exitDy=0;entryX=0.5;entryY=0;entryDx=0;entryDy=0;" edge="1" parent="7xc8tvYt5sH4905yNlHF-28" source="7xc8tvYt5sH4905yNlHF-7" target="7xc8tvYt5sH4905yNlHF-19">
          <mxGeometry relative="1" as="geometry" />
        </mxCell>
        <mxCell id="7xc8tvYt5sH4905yNlHF-26" value="&lt;ol&gt;&lt;li&gt;今の残る問題は、輪郭と形状が表示されない。&lt;/li&gt;&lt;li&gt;深層トレーニング必要のメモリースペース不足している。&lt;/li&gt;&lt;/ol&gt;" style="rounded=0;whiteSpace=wrap;html=1;align=left;fillColor=#ffe6cc;strokeColor=#d79b00;" vertex="1" parent="7xc8tvYt5sH4905yNlHF-28">
          <mxGeometry x="274.3621399176955" y="473.469387755102" width="251.11111111111111" height="122.44897959183673" as="geometry" />
        </mxCell>
        <mxCell id="7xc8tvYt5sH4905yNlHF-27" value="&lt;ol&gt;&lt;li&gt;MaskRCNNの理論調査。&lt;/li&gt;&lt;li&gt;Mobilenetの理論調査。&lt;/li&gt;&lt;li&gt;教示トレーニング方法を選定。&lt;/li&gt;&lt;li&gt;TensorflowとKerasでアルゴリズム書く。&lt;/li&gt;&lt;li&gt;データセットの準備と導入。&lt;/li&gt;&lt;li&gt;画像処理とJSONファイルの解析。&lt;/li&gt;&lt;li&gt;バリに対してアルゴリズムのパラメータの設定と調整。&lt;/li&gt;&lt;/ol&gt;" style="rounded=0;whiteSpace=wrap;html=1;align=left;" vertex="1" parent="7xc8tvYt5sH4905yNlHF-28">
          <mxGeometry x="112.53497942386832" y="628.5714285714287" width="293.89300411522635" height="171.42857142857142" as="geometry" />
        </mxCell>
      </root>
    </mxGraphModel>
  </diagram>
</mxfile>
